<svg width="23" height="25" viewBox="0 0 23 25" fill="none" xmlns="http://www.w3.org/2000/svg">
<path d="M19.9577 15.4878L22.4793 15.4878L22.4793 13.3941L15.1904 13.3941C15.0578 15.5665 13.2336 17.2902 11.0037 17.2902C8.77378 17.2902 6.94956 15.5665 6.81698 13.3941L1.05193e-05 13.3941L1.03363e-05 15.4878L2.08143 15.4878C2.19279 15.9181 2.33862 16.3405 2.51362 16.755C2.71248 17.222 2.94846 17.668 3.22157 18.0904L1.39999 19.8929L4.2689 22.7317L6.09312 20.9266C6.51471 21.1916 6.96016 21.4225 7.42417 21.6166C7.94651 21.8344 8.48477 22.0049 9.03362 22.123L9.03362 24.6338L13.0957 24.6338L13.0957 22.102C13.6127 21.9839 14.1192 21.8213 14.6124 21.6166C15.1108 21.4093 15.5854 21.1601 16.0335 20.8715L17.826 22.6451L20.6975 19.8037L18.8759 18.0012C19.1252 17.6051 19.34 17.1879 19.5256 16.755C19.7006 16.3405 19.8464 15.9181 19.9577 15.4878Z" fill="#FFCC29"/>
<path d="M18.8742 4.28502V8.51265C18.8742 8.79954 18.6372 9.0323 18.345 9.0323H17.9702C17.678 9.0323 17.441 8.79954 17.441 8.51265V3.18616C16.3551 2.47705 15.1368 1.94657 13.8304 1.64343V8.97817C13.8304 9.26507 13.5934 9.49783 13.3012 9.49783H9.167C8.87485 9.49783 8.63782 9.26507 8.63782 8.97817V1.64343C7.34793 1.94657 6.12971 2.48246 5.04378 3.18616V8.51265C5.04378 8.79954 4.80675 9.0323 4.5146 9.0323H4.13976C3.8476 9.0323 3.61057 8.79954 3.61057 8.51265V4.28502C1.39462 6.29869 0 9.17304 0 12.3722H22.4793C22.4848 9.17304 21.0957 6.29869 18.8742 4.28502Z" fill="#FFCC29"/>
<path d="M12.7723 8.10296C12.7723 8.34489 12.595 8.5405 12.372 8.5405H10.1073C9.88998 8.5405 9.70697 8.34489 9.70697 8.10296V0.803751C9.70697 0.561817 9.88426 0.366211 10.1073 0.366211H12.372C12.5893 0.366211 12.7723 0.561817 12.7723 0.803751V8.10296Z" fill="#FFCC29"/>
</svg>
